<?xml version="1.0" encoding="UTF-8"?>
<svg version="1.1" xmlns="http://www.w3.org/2000/svg" width="500" height="200">
<path d="M0 0 C1.65 0 3.3 0 5 0 C5 4.29 5 8.58 5 13 C6.77375 12.979375 8.5475 12.95875 10.375 12.9375 C15.75 12.875 15.75 12.875 18 14 C18 16.31 18 18.62 18 21 C18.6290625 21.03738281 19.258125 21.07476562 19.90625 21.11328125 C20.7621875 21.17902344 21.618125 21.24476562 22.5 21.3125 C23.3353125 21.37050781 24.170625 21.42851563 25.03125 21.48828125 C28 22 28 22 36 25 C36 18.4 36 11.8 36 5 C38.475 4.505 38.475 4.505 41 4 C42 5 42 5 42.11352539 7.04125977 C42.10567017 8.35308228 42.10567017 8.35308228 42.09765625 9.69140625 C42.09282227 11.10776367 42.09282227 11.10776367 42.08789062 12.55273438 C42.07532227 14.04256836 42.07532227 14.04256836 42.0625 15.5625 C42.05798828 16.55958984 42.05347656 17.55667969 42.04882812 18.58398438 C42.03700007 21.05604849 42.02051849 23.52799518 42 26 C43.423125 26.4021875 43.423125 26.4021875 44.875 26.8125 C48 28 48 28 50 31 C50.1953125 33.69921875 50.1953125 33.69921875 50.125 36.6875 C50.10695313 37.68136719 50.08890625 38.67523438 50.0703125 39.69921875 C50.04710938 40.45847656 50.02390625 41.21773437 50 42 C50.7113208 41.98428955 51.4226416 41.9685791 52.15551758 41.95239258 C55.37443104 41.89008085 58.59321768 41.85102133 61.8125 41.8125 C62.93205078 41.78736328 64.05160156 41.76222656 65.20507812 41.73632812 C66.27822266 41.72666016 67.35136719 41.71699219 68.45703125 41.70703125 C69.44678955 41.6913208 70.43654785 41.67561035 71.45629883 41.65942383 C74 42 74 42 75.8347168 43.2878418 C77.7121805 46.04641144 77.18273299 48.7717171 77 52 C78.65 52.33 80.3 52.66 82 53 C82.59732819 55.76264289 83 58.16032769 83 61 C84.81600791 64.66708145 84.81600791 64.66708145 88 67 C88 70.96 88 74.92 88 79 C85.525 79.99 85.525 79.99 83 81 C82.34 81.66 81.68 82.32 81 83 C78.45464859 83.19849071 76.04283241 83.27851775 73.5 83.25 C72.81035156 83.25773437 72.12070313 83.26546875 71.41015625 83.2734375 C66.25333293 83.25333293 66.25333293 83.25333293 64 81 C61.43083343 80.69400937 58.95241616 80.48912913 56.375 80.375 C55.66859375 80.33632812 54.9621875 80.29765625 54.234375 80.2578125 C52.49001476 80.16352276 50.74504309 80.08067109 49 80 C48.71125 80.639375 48.4225 81.27875 48.125 81.9375 C47 84 47 84 45 85 C42.54306092 85.20353342 40.14757347 85.32340647 37.6875 85.375 C36.37136719 85.42398438 35.05523437 85.47296875 33.69921875 85.5234375 C29.15063935 84.87981592 27.78846623 83.56798119 25 80 C24.67 79.01 24.34 78.02 24 77 C16.56381307 75.90423946 9.13078683 75.60059315 1.625 75.3125 C0.34238281 75.25255859 -0.94023438 75.19261719 -2.26171875 75.13085938 C-3.48246094 75.08380859 -4.70320313 75.03675781 -5.9609375 74.98828125 C-7.62842041 74.91927612 -7.62842041 74.91927612 -9.32958984 74.84887695 C-12.15543706 74.71142056 -12.15543706 74.71142056 -14 77 C-17.10320261 77.47258908 -20.23984834 77.3703622 -23.375 77.375 C-24.67050781 77.41173828 -24.67050781 77.41173828 -25.9921875 77.44921875 C-29.8355801 77.46701223 -32.27459527 77.4422137 -35.6015625 75.4140625 C-37 73 -37 73 -37 66 C-42.61 66 -48.22 66 -54 66 C-54.33 67.65 -54.66 69.3 -55 71 C-58.69331946 73.46221297 -60.21253608 73.11938241 -64.5625 72.75 C-65.71878906 72.66234375 -66.87507813 72.5746875 -68.06640625 72.484375 C-71 72 -71 72 -73 70 C-73.33333333 64.66666667 -73.33333333 64.66666667 -72 62 C-72.99 62 -73.98 62 -75 62 C-75 51.77 -75 41.54 -75 31 C-65.25960831 26.94150346 -55.53101283 22.92383213 -45.67626953 19.15917969 C-43.90088365 18.47312472 -42.13085789 17.77302404 -40.36669922 17.05859375 C-27.12476304 11.70951277 -16.21317498 9.89736288 -2 12 C-1.01 12.495 -1.01 12.495 0 13 C0 8.71 0 4.42 0 0 Z " fill="#8A52E5" transform="translate(75,89)"/>
<path d="M0 0 C0 2.97 0 5.94 0 9 C-0.99902344 9.06058594 -1.99804688 9.12117188 -3.02734375 9.18359375 C-4.31769531 9.26738281 -5.60804687 9.35117188 -6.9375 9.4375 C-8.22527344 9.51871094 -9.51304688 9.59992188 -10.83984375 9.68359375 C-13.86023957 9.64919188 -13.86023957 9.64919188 -15 11 C-15.11351001 13.76487496 -15.16418537 16.50381122 -15.16796875 19.26953125 C-15.17129715 20.10207932 -15.17462555 20.93462738 -15.17805481 21.79240417 C-15.18312868 23.55861863 -15.18546299 25.32484272 -15.18530273 27.09106445 C-15.18748239 29.79068926 -15.20561408 32.48990108 -15.22460938 35.18945312 C-15.22754458 36.90364443 -15.22952853 38.61783769 -15.23046875 40.33203125 C-15.23765427 41.13945267 -15.24483978 41.94687408 -15.25224304 42.77876282 C-15.23650716 46.65187555 -15.21474253 49.72314662 -13 53 C-10.69 53 -8.38 53 -6 53 C-6.0314209 51.30472168 -6.0314209 51.30472168 -6.06347656 49.57519531 C-6.13592696 45.37838431 -6.18181784 41.18162848 -6.21972656 36.984375 C-6.23983061 35.1685252 -6.26711835 33.35274005 -6.30175781 31.53710938 C-6.35033039 28.92561895 -6.37298027 26.31498502 -6.390625 23.703125 C-6.41127014 22.89256653 -6.43191528 22.08200806 -6.45318604 21.24688721 C-6.4546484 17.56591414 -6.33633995 15.45047073 -4.10058594 12.45605469 C-2 11 -2 11 0 11 C0 25.52 0 40.04 0 55 C-3.96 55 -7.92 55 -12 55 C-12.185625 56.670625 -12.185625 56.670625 -12.375 58.375 C-13 62 -13 62 -15 64 C-18.10320261 64.47258908 -21.23984834 64.3703622 -24.375 64.375 C-25.67050781 64.41173828 -25.67050781 64.41173828 -26.9921875 64.44921875 C-30.8355801 64.46701223 -33.27459527 64.4422137 -36.6015625 62.4140625 C-38 60 -38 60 -38 53 C-43.61 53 -49.22 53 -55 53 C-55.33 54.65 -55.66 56.3 -56 58 C-59.69331946 60.46221297 -61.21253608 60.11938241 -65.5625 59.75 C-66.71878906 59.66234375 -67.87507813 59.5746875 -69.06640625 59.484375 C-72 59 -72 59 -74 57 C-74.33333333 51.66666667 -74.33333333 51.66666667 -73 49 C-73.99 49 -74.98 49 -76 49 C-76 38.77 -76 28.54 -76 18 C-66.25960831 13.94150346 -56.53101283 9.92383213 -46.67626953 6.15917969 C-44.90088365 5.47312472 -43.13085789 4.77302404 -41.36669922 4.05859375 C-27.92516172 -1.3711162 -14.2960111 -4.76533703 0 0 Z " fill="#040207" transform="translate(76,102)"/>
<path d="M0 0 C2.475 0.495 2.475 0.495 5 1 C5 7.93 5 14.86 5 22 C6.98 22.66 8.96 23.32 11 24 C13.28062828 27.42094242 13.21925007 28.68187222 13.125 32.6875 C13.10695312 33.68136719 13.08890625 34.67523438 13.0703125 35.69921875 C13.04710937 36.45847656 13.02390625 37.21773437 13 38 C15.64 38 18.28 38 21 38 C20.360625 38.350625 19.72125 38.70125 19.0625 39.0625 C16.17836168 41.77184206 16.2899178 44.15858911 16 48 C15.37351563 48.04898438 14.74703125 48.09796875 14.1015625 48.1484375 C13.28429687 48.22320312 12.46703125 48.29796875 11.625 48.375 C10.81289062 48.44460937 10.00078125 48.51421875 9.1640625 48.5859375 C6.79665809 48.82892588 6.79665809 48.82892588 5 51 C2.609375 51.2734375 2.609375 51.2734375 -0.25 51.375 C-5.22488553 51.75918619 -8.230597 52.51330223 -12 56 C-12.99 57.98 -13.98 59.96 -15 62 C-20.61 62 -26.22 62 -32 62 C-32 57.38 -32 52.76 -32 48 C-25.73 47.67 -19.46 47.34 -13 47 C-19.27 46.67 -25.54 46.34 -32 46 C-32 38.41 -32 30.82 -32 23 C-16.655 22.505 -16.655 22.505 -1 22 C-1.03958469 15.13387193 -1.03958469 15.13387193 -1.09008789 8.26782227 C-1.09258545 7.41760498 -1.09508301 6.5673877 -1.09765625 5.69140625 C-1.10551147 4.37958374 -1.10551147 4.37958374 -1.11352539 3.04125977 C-1 1 -1 1 0 0 Z " fill="#8B53F6" transform="translate(112,93)"/>
<path d="M0 0 C0 12.21 0 24.42 0 37 C-30.71428571 39.28571429 -30.71428571 39.28571429 -46 39 C-46 31.08 -46 23.16 -46 15 C-40.21593622 13.02439426 -34.43184995 11.04885461 -28.64770508 9.07348633 C-26.67959266 8.40132521 -24.71149363 7.72912491 -22.7434082 7.05688477 C-19.91621351 6.09120571 -17.08897088 5.12566713 -14.26171875 4.16015625 C-13.38037766 3.85908463 -12.49903656 3.558013 -11.59098816 3.24781799 C-10.77036392 2.967603 -9.94973969 2.687388 -9.10424805 2.39868164 C-8.02169991 2.02894981 -8.02169991 2.02894981 -6.9172821 1.65174866 C-2.05824924 0 -2.05824924 0 0 0 Z " fill="#8750F3" transform="translate(49,108)"/>
<path d="M0 0 C1.94326172 -0.02126953 1.94326172 -0.02126953 3.92578125 -0.04296875 C8.30363754 0.22524882 11.78166556 1.23458278 15.6875 3.1875 C15.6875 4.1775 15.6875 5.1675 15.6875 6.1875 C16.29335938 6.44144531 16.89921875 6.69539063 17.5234375 6.95703125 C22.12381489 9.5727693 24.16431078 14.87952695 26.0625 19.625 C27.7137213 29.03696143 24.61728012 36.18623578 19.6875 44.1875 C16.66957042 48.45930747 13.37029655 52.50285509 10.04052734 56.53320312 C7.37181385 59.79614116 4.82464333 63.15776372 2.24609375 66.4921875 C1.73175781 67.05164063 1.21742188 67.61109375 0.6875 68.1875 C0.0275 68.1875 -0.6325 68.1875 -1.3125 68.1875 C-3.17142472 66.16577136 -4.87085413 64.15406005 -6.5625 62 C-7.0471875 61.42185547 -7.531875 60.84371094 -8.03125 60.24804688 C-9.390625 58.51953125 -9.390625 58.51953125 -11.3125 55.1875 C-10.609375 52.26171875 -10.609375 52.26171875 -9.3125 50.1875 C-5.82377585 51.35040805 -5.21273136 52.32717609 -3.125 55.25 C-2.33029297 56.35021484 -2.33029297 56.35021484 -1.51953125 57.47265625 C-1.12121094 58.03855469 -0.72289062 58.60445312 -0.3125 59.1875 C3.66384347 55.51999874 6.73761506 51.27035855 9.9375 46.9375 C10.49179687 46.19242188 11.04609375 45.44734375 11.6171875 44.6796875 C12.97689903 42.85110993 14.33355873 41.02035182 15.6875 39.1875 C14.09801534 35.78587913 12.45391381 33.86255674 9.5625 31.4375 C8.83804688 30.82390625 8.11359375 30.2103125 7.3671875 29.578125 C6.81289063 29.11921875 6.25859375 28.6603125 5.6875 28.1875 C1.34762875 32.39865317 1.34762875 32.39865317 -2.3125 37.1875 C-2.3125 37.8475 -2.3125 38.5075 -2.3125 39.1875 C-1.6525 39.5175 -0.9925 39.8475 -0.3125 40.1875 C-0.3125 41.1775 -0.3125 42.1675 -0.3125 43.1875 C-2.2925 42.8575 -4.2725 42.5275 -6.3125 42.1875 C-6.580625 42.909375 -6.84875 43.63125 -7.125 44.375 C-8.30232498 47.16340126 -9.70395884 49.62845724 -11.3125 52.1875 C-18.16363748 49.42300593 -21.87693063 41.64934998 -24.75 35.1875 C-27.35968144 27.92577773 -27.41668117 21.90628098 -24.125 14.875 C-18.66928028 5.08228959 -11.16099188 0.05519778 0 0 Z M-16.6875 12.5 C-20.34452645 17.19335002 -21.5833478 21.70758294 -21.1875 27.625 C-20.22365287 34.2698755 -17.4420896 39.79070892 -12.3125 44.1875 C-11.6525 42.2075 -10.9925 40.2275 -10.3125 38.1875 C-11.3025 38.1875 -12.2925 38.1875 -13.3125 38.1875 C-13.3125 37.1975 -13.3125 36.2075 -13.3125 35.1875 C-11.3325 35.1875 -9.3525 35.1875 -7.3125 35.1875 C-6.47180585 33.58717863 -5.64018495 31.98208829 -4.8125 30.375 C-4.3484375 29.48167969 -3.884375 28.58835937 -3.40625 27.66796875 C-2.11076859 25.18181974 -2.11076859 25.18181974 -2.3125 22.1875 C-4.24717942 21.34763916 -6.18535129 20.51581973 -8.125 19.6875 C-9.20394531 19.2234375 -10.28289062 18.759375 -11.39453125 18.28125 C-14.26132024 17.01200697 -14.26132024 17.01200697 -17.3125 17.1875 C-16.9825 16.5275 -16.6525 15.8675 -16.3125 15.1875 C-15.73282471 15.18862793 -15.15314941 15.18975586 -14.5559082 15.19091797 C-11.91110966 15.17875798 -9.26916162 15.12105583 -6.625 15.0625 C-5.25698242 15.06636719 -5.25698242 15.06636719 -3.86132812 15.0703125 C1.11253769 15.0047983 1.11253769 15.0047983 5.44775391 12.86425781 C7.28265545 10.7348659 8.6875 9.07784927 8.6875 6.1875 C-0.91132047 2.98789318 -9.8570981 5.19229291 -16.6875 12.5 Z M14.6875 7.1875 C15.6875 9.1875 15.6875 9.1875 15.6875 9.1875 Z M13.6875 9.1875 C13.15067332 10.40976641 12.63374468 11.64078085 12.125 12.875 C11.83496094 13.55949219 11.54492188 14.24398437 11.24609375 14.94921875 C9.94985248 20.14324847 12.6719448 24.81834896 14.75 29.5 C15.03166016 30.14517578 15.31332031 30.79035156 15.60351562 31.45507812 C16.2937743 33.03448358 16.99003198 34.61126493 17.6875 36.1875 C21.24450833 30.8519875 21.34333639 26.53293002 20.6875 20.1875 C19.62808187 17.2220545 18.32677718 14.90255282 16.6875 12.1875 C16.0275 12.1875 15.3675 12.1875 14.6875 12.1875 C14.3575 11.1975 14.0275 10.2075 13.6875 9.1875 Z " fill="#8B52FF" transform="translate(402.3125,24.8125)"/>
<path d="M0 0 C0.66 0 1.32 0 2 0 C2 4.29 2 8.58 2 13 C3.77375 12.979375 5.5475 12.95875 7.375 12.9375 C12.75 12.875 12.75 12.875 15 14 C15 16.31 15 18.62 15 21 C15.6290625 21.02578125 16.258125 21.0515625 16.90625 21.078125 C23.23015102 21.49717868 27.50558326 22.8457978 33 26 C33 26.33 33 26.66 33 27 C22.77 27 12.54 27 2 27 C2 34.59 2 42.18 2 50 C8.27 50 14.54 50 21 50 C21.33 50.66 21.66 51.32 22 52 C15.4 52 8.8 52 2 52 C2 56.62 2 61.24 2 66 C7.61 66 13.22 66 19 66 C19.66 64.02 20.32 62.04 21 60 C26.15450859 55.23207956 29.6625401 54.7998166 36.46875 54.37890625 C39.1645758 54.23184672 39.1645758 54.23184672 41 52 C43.1640625 51.8046875 43.1640625 51.8046875 45.625 51.875 C46.44226563 51.89304688 47.25953125 51.91109375 48.1015625 51.9296875 C48.72804687 51.95289063 49.35453125 51.97609375 50 52 C49.8453125 50.3603125 49.8453125 50.3603125 49.6875 48.6875 C50 45 50 45 52.01171875 43.29296875 C55.76073096 41.67084713 59.11436143 41.55925183 63.125 41.625 C64.19814453 41.60759766 64.19814453 41.60759766 65.29296875 41.58984375 C68.26326208 41.6064996 70.45400221 41.6435399 72.98046875 43.29296875 C74.64734921 46.08387588 74.17878854 48.84140254 74 52 C75.65 52.33 77.3 52.66 79 53 C79.59732819 55.76264289 80 58.16032769 80 61 C80.98189187 62.67739862 81.98133771 64.34467377 83 66 C83 66.66 83 67.32 83 68 C79.04 68 75.08 68 71 68 C71 61.4 71 54.8 71 48 C70.34 48 69.68 48 69 48 C69 54.6 69 61.2 69 68 C68.34 68 67.68 68 67 68 C67 61.07 67 54.14 67 47 C66.01 47 65.02 47 64 47 C64 53.93 64 60.86 64 68 C63.01 68 62.02 68 61 68 C61 61.07 61 54.14 61 47 C60.34 47 59.68 47 59 47 C59 53.93 59 60.86 59 68 C58.01 68 57.02 68 56 68 C55.67 61.73 55.34 55.46 55 49 C54.67 55.27 54.34 61.54 54 68 C52.68 68 51.36 68 50 68 C50 65.36 50 62.72 50 60 C49.01 60.33 48.02 60.66 47 61 C47.66 63.31 48.32 65.62 49 68 C45.7 68 42.4 68 39 68 C39 70.31 39 72.62 39 75 C38.01 75 37.02 75 36 75 C35.87882812 74.31292969 35.75765625 73.62585938 35.6328125 72.91796875 C35.46523437 72.01691406 35.29765625 71.11585938 35.125 70.1875 C34.96257812 69.29417969 34.80015625 68.40085937 34.6328125 67.48046875 C34.08811551 64.77272154 34.08811551 64.77272154 32 62 C29.41619823 61.74969023 29.41619823 61.74969023 27 62 C24.87953208 65.53411321 24.46800711 68.94393835 24 73 C22.02 73 20.04 73 18 73 C18 71.35 18 69.7 18 68 C12.06 68 6.12 68 0 68 C0 45.56 0 23.12 0 0 Z " fill="#0B0715" transform="translate(78,89)"/>
<path d="M0 0 C0.99 0 1.98 0 3 0 C3 22.44 3 44.88 3 68 C8.94 68 14.88 68 21 68 C21 69.65 21 71.3 21 73 C22.98 73 24.96 73 27 73 C26.95875 71.88625 26.9175 70.7725 26.875 69.625 C27 66 27 66 29 64 C30.3271261 67.9813783 30.06915913 71.85045227 30 76 C31.32 76.66 32.64 77.32 34 78 C34.66 77.34 35.32 76.68 36 76 C38.625 75.875 38.625 75.875 41 76 C40.65198447 78.57531492 40.29035995 80.54832896 38.875 82.75 C35.88111599 84.74592267 33.57186665 85 30 85 C26.79917017 82.49500274 25.2872642 80.8617926 24 77 C16.52542217 75.95242659 9.02742679 75.45386312 1.5 74.9375 C0.200625 74.84662109 -1.09875 74.75574219 -2.4375 74.66210938 C-5.62486996 74.43946221 -8.81236508 74.21881547 -12 74 C-11.67 72.02 -11.34 70.04 -11 68 C-7.04 68 -3.08 68 1 68 C1 53.48 1 38.96 1 24 C-4.34415096 27.36360203 -4.34415096 27.36360203 -4.65942383 31.94238281 C-4.70040164 33.52884709 -4.7147309 35.11615027 -4.70703125 36.703125 C-4.72215256 37.54091492 -4.73727386 38.37870483 -4.75285339 39.24188232 C-4.79576008 41.91152802 -4.80457086 44.58004373 -4.8125 47.25 C-4.83564213 49.0625301 -4.86100688 50.87503329 -4.88867188 52.6875 C-4.95155316 57.12510001 -4.98386525 61.56199374 -5 66 C-11.36971109 66.48073291 -11.36971109 66.48073291 -13.91479492 64.53955078 C-15.48980541 60.8537782 -15.40837533 57.30523947 -15.36328125 53.3671875 C-15.36377975 52.53414093 -15.36427826 51.70109436 -15.36479187 50.84280396 C-15.36245563 49.08609627 -15.35275363 47.32938497 -15.33618164 45.57275391 C-15.31252306 42.87762725 -15.31563203 40.18348581 -15.32226562 37.48828125 C-15.31669087 35.78124408 -15.30958226 34.07421108 -15.30078125 32.3671875 C-15.30169266 31.55885468 -15.30260406 30.75052185 -15.30354309 29.91769409 C-15.23104981 24.23104981 -15.23104981 24.23104981 -13 22 C-9.7421875 21.8046875 -9.7421875 21.8046875 -5.875 21.875 C-3.95300781 21.90207031 -3.95300781 21.90207031 -1.9921875 21.9296875 C-0.51105469 21.96449219 -0.51105469 21.96449219 1 22 C0.835 20.783125 0.67 19.56625 0.5 18.3125 C-0.19161175 12.2146274 -0.08524443 6.12812763 0 0 Z " fill="#8B53F8" transform="translate(75,89)"/>
<path d="M0 0 C2.475 0.495 2.475 0.495 5 1 C5 7.93 5 14.86 5 22 C6.98 22.66 8.96 23.32 11 24 C13.20914 27.31371 13.22481553 28.3446021 13.125 32.1875 C13.10695312 33.08855469 13.08890625 33.98960938 13.0703125 34.91796875 C13.04710937 35.60503906 13.02390625 36.29210937 13 37 C12.01 37.495 12.01 37.495 11 38 C10.505 33.545 10.505 33.545 10 29 C8.68 28.67 7.36 28.34 6 28 C5.401875 29.093125 4.80375 30.18625 4.1875 31.3125 C0.97760399 36.79931186 0.97760399 36.79931186 -1 38 C-3.7178404 38.23774349 -6.26079126 38.13471518 -9 38 C-7.68 35.03 -6.36 32.06 -5 29 C-5.66 29 -6.32 29 -7 29 C-7.28875 29.928125 -7.5775 30.85625 -7.875 31.8125 C-9 35 -9 35 -11 38 C-11.66 37.67 -12.32 37.34 -13 37 C-12.505 36.05125 -12.01 35.1025 -11.5 34.125 C-9.85575631 31.27721834 -9.85575631 31.27721834 -10 29 C-11.65 31.97 -13.3 34.94 -15 38 C-15.99 38 -16.98 38 -18 38 C-18 35.03 -18 32.06 -18 29 C-18.66 29 -19.32 29 -20 29 C-20.06058594 29.63808594 -20.12117188 30.27617188 -20.18359375 30.93359375 C-20.26738281 31.75988281 -20.35117188 32.58617187 -20.4375 33.4375 C-20.51871094 34.26121094 -20.59992188 35.08492187 -20.68359375 35.93359375 C-21 38 -21 38 -22 39 C-23.51928038 39.07179964 -25.04167482 39.08392007 -26.5625 39.0625 C-27.38878906 39.05347656 -28.21507813 39.04445312 -29.06640625 39.03515625 C-29.70449219 39.02355469 -30.34257813 39.01195312 -31 39 C-31 40.65 -31 42.3 -31 44 C-31.33 44 -31.66 44 -32 44 C-32 37.07 -32 30.14 -32 23 C-16.655 22.505 -16.655 22.505 -1 22 C-1.03958469 15.13387193 -1.03958469 15.13387193 -1.09008789 8.26782227 C-1.09258545 7.41760498 -1.09508301 6.5673877 -1.09765625 5.69140625 C-1.10551147 4.37958374 -1.10551147 4.37958374 -1.11352539 3.04125977 C-1 1 -1 1 0 0 Z " fill="#9358FD" transform="translate(112,93)"/>
<path d="M0 0 C2.6015625 0.0234375 2.6015625 0.0234375 5.625 0.375 C6.62789062 0.48585938 7.63078125 0.59671875 8.6640625 0.7109375 C9.82035156 0.85402344 9.82035156 0.85402344 11 1 C11 1.99 11 2.98 11 4 C10.34 4.66 9.68 5.32 9 6 C8.75418157 8.86436824 8.62630619 11.6390314 8.5859375 14.5078125 C8.56657135 15.34843231 8.5472052 16.18905212 8.5272522 17.05514526 C8.46738342 19.74499303 8.42104229 22.43488343 8.375 25.125 C8.3368269 26.94663344 8.29777556 28.7682487 8.2578125 30.58984375 C8.16167602 35.05974852 8.07767231 39.52973779 8 44 C1.63028891 44.48073291 1.63028891 44.48073291 -0.91479492 42.53955078 C-2.48980541 38.8537782 -2.40837533 35.30523947 -2.36328125 31.3671875 C-2.36377975 30.53414093 -2.36427826 29.70109436 -2.36479187 28.84280396 C-2.36245563 27.08609627 -2.35275363 25.32938497 -2.33618164 23.57275391 C-2.31252306 20.87762725 -2.31563203 18.18348581 -2.32226562 15.48828125 C-2.31669087 13.78124408 -2.30958226 12.07421108 -2.30078125 10.3671875 C-2.30169266 9.55885468 -2.30260406 8.75052185 -2.30354309 7.91769409 C-2.23104981 2.23104981 -2.23104981 2.23104981 0 0 Z " fill="#834EE9" transform="translate(62,111)"/>
<path d="M0 0 C0.66 0 1.32 0 2 0 C2 4.29 2 8.58 2 13 C3.77375 12.979375 5.5475 12.95875 7.375 12.9375 C12.75 12.875 12.75 12.875 15 14 C15 16.31 15 18.62 15 21 C15.6290625 21.02578125 16.258125 21.0515625 16.90625 21.078125 C23.23015102 21.49717868 27.50558326 22.8457978 33 26 C33 26.33 33 26.66 33 27 C22.77 27 12.54 27 2 27 C2 34.59 2 42.18 2 50 C8.27 50 14.54 50 21 50 C21.33 50.66 21.66 51.32 22 52 C15.4 52 8.8 52 2 52 C2 57.28 2 62.56 2 68 C1.34 68 0.68 68 0 68 C0 45.56 0 23.12 0 0 Z " fill="#1D1135" transform="translate(78,89)"/>
<path d="M0 0 C2.53027637 1.13936421 4.6631194 2.47387389 7 4 C6.67 4.99 6.34 5.98 6 7 C3.4375 8.1875 3.4375 8.1875 1 9 C0.67 8.67 0.34 8.34 0 8 C-2.67058851 7.85884839 -5.32432238 7.95752893 -8 8 C-8 10.97 -8 13.94 -8 17 C-7.01 17 -6.02 17 -5 17 C-5 14.69 -5 12.38 -5 10 C-0.38 10 4.24 10 9 10 C9 18.27586207 9 18.27586207 6 22 C2.53921963 24.86750374 -0.50506612 25.53846895 -5.0078125 25.3515625 C-9.40859302 24.57495417 -12.14364308 22.05617353 -14.875 18.6875 C-16.35117243 15.16108808 -16.46618895 12.79611 -16 9 C-12.31621966 1.90531194 -8.0408237 -0.97044424 0 0 Z " fill="#8B53FF" transform="translate(223,60)"/>
<path d="M0 0 C3.28219806 2.97687731 4.46220578 5.18500829 5.6875 9.4375 C5.5959746 14.74597307 4.44089955 17.68410045 0.6875 21.4375 C-2.35720604 23.72102953 -5.52140858 23.86214146 -9.28515625 23.75 C-12.73906706 23.21760527 -14.73094495 21.71887423 -17.3125 19.4375 C-19.72193467 16.01765724 -20.55969111 13.48614944 -20.25 9.375 C-19.43690672 4.75274149 -17.31112843 1.93647132 -13.5625 -0.875 C-8.50541292 -2.42022105 -4.68496945 -2.20989125 0 0 Z M-12.1875 6.625 C-13.71909584 9.09257108 -13.74072025 10.58269831 -13.3125 13.4375 C-12.29279682 15.37404948 -12.29279682 15.37404948 -10.3125 16.4375 C-7.3125 17.02083333 -7.3125 17.02083333 -4.3125 16.4375 C-2.2339392 14.86054368 -2.2339392 14.86054368 -1.3125 12.4375 C-1.55324022 9.06713689 -1.90048021 7.84951979 -4.3125 5.4375 C-7.44954316 5.103772 -9.47804166 4.90900972 -12.1875 6.625 Z " fill="#8B52FF" transform="translate(116.3125,61.5625)"/>
<path d="M0 0 C4.09613637 1.80992072 6.73195328 4.1359204 9 8 C9.89678731 12.07769957 9.92895667 15.47628449 7.71875 19.1015625 C5.66143172 21.55219163 3.87889311 23.56055344 1 25 C-4.29808682 25.34741553 -7.75766415 25.53527987 -12 22 C-14.72285832 18.76200632 -15.8994841 16.70361133 -16.5 12.5 C-15.76294462 7.34061235 -13.70563649 4.38294851 -9.6875 1.125 C-6.20647239 -0.33217435 -3.74471902 -0.40121989 0 0 Z M-7.875 8.0625 C-9.67936761 11.17002199 -8.81177938 13.62799333 -8 17 C-5.23749964 18.38125018 -3.05268901 18.19079306 0 18 C2.3721969 16.05541686 2.3721969 16.05541686 2.3125 12.5 C2.209375 11.345 2.10625 10.19 2 9 C-1.56307433 6.62461711 -4.01617883 5.87583467 -7.875 8.0625 Z " fill="#8B53FF" transform="translate(189,60)"/>
<path d="M0 0 C2.05078125 0.03255208 4.1015625 0.06510417 6.15234375 0.09765625 C6.33984375 2.97265625 6.33984375 2.97265625 6.15234375 6.09765625 C5.16234375 6.75765625 4.17234375 7.41765625 3.15234375 8.09765625 C3.81234375 10.40765625 4.47234375 12.71765625 5.15234375 15.09765625 C1.85234375 15.09765625 -1.44765625 15.09765625 -4.84765625 15.09765625 C-4.84765625 17.40765625 -4.84765625 19.71765625 -4.84765625 22.09765625 C-5.83765625 22.09765625 -6.82765625 22.09765625 -7.84765625 22.09765625 C-8.02941406 21.06705078 -8.02941406 21.06705078 -8.21484375 20.015625 C-8.46621094 18.66404297 -8.46621094 18.66404297 -8.72265625 17.28515625 C-8.88507813 16.39183594 -9.0475 15.49851563 -9.21484375 14.578125 C-9.75954074 11.87037779 -9.75954074 11.87037779 -11.84765625 9.09765625 C-14.43145802 8.84734648 -14.43145802 8.84734648 -16.84765625 9.09765625 C-18.96812417 12.63176946 -19.37964914 16.0415946 -19.84765625 20.09765625 C-21.82765625 20.09765625 -23.80765625 20.09765625 -25.84765625 20.09765625 C-25.84765625 18.44765625 -25.84765625 16.79765625 -25.84765625 15.09765625 C-31.12765625 15.09765625 -36.40765625 15.09765625 -41.84765625 15.09765625 C-42.17765625 14.43765625 -42.50765625 13.77765625 -42.84765625 13.09765625 C-36.90765625 13.09765625 -30.96765625 13.09765625 -24.84765625 13.09765625 C-24.18765625 11.11765625 -23.52765625 9.13765625 -22.84765625 7.09765625 C-17.25708316 1.92637615 -13.12822022 1.8333754 -5.71875 1.37890625 C-2.90779129 1.10354703 -2.51817378 0.13309587 0 0 Z " fill="#0A0612" transform="translate(121.84765625,141.90234375)"/>
<path d="M0 0 C5.28 0 10.56 0 16 0 C16 2.31 16 4.62 16 7 C11.545 7.495 11.545 7.495 7 8 C9.64 8.33 12.28 8.66 15 9 C15 10.98 15 12.96 15 15 C12.36 15 9.72 15 7 15 C7 15.66 7 16.32 7 17 C9.97 17.33 12.94 17.66 16 18 C16 20.31 16 22.62 16 25 C10.72 25 5.44 25 0 25 C0 16.75 0 8.5 0 0 Z " fill="#8A53FF" transform="translate(45,60)"/>
<path d="M0 0 C2.7033985 1.65971358 4.97315979 3.555124 7 6 C7 6.66 7 7.32 7 8 C5.02 8.66 3.04 9.32 1 10 C0.34 9.34 -0.32 8.68 -1 8 C-4 7.66666667 -4 7.66666667 -7 8 C-9.2491908 9.82703227 -9.2491908 9.82703227 -9.25 12.5 C-9.2491908 15.17296773 -9.2491908 15.17296773 -7 17 C-3.83245949 17.2754383 -1.71526154 17.37866787 1.125 15.875 C1.74375 15.58625 2.3625 15.2975 3 15 C5.25 15.875 5.25 15.875 7 17 C6.09126425 20.05665662 5.32469175 21.72305703 2.875 23.8125 C-0.82981808 25.34275095 -4.0853654 25.68314212 -8 25 C-11.69305808 23.18831113 -13.57365601 21.60513341 -15.9375 18.25 C-17.27927006 14.14576215 -17.2572166 11.11993277 -16 7 C-12.1568119 0.90390853 -7.26233152 -1.58989818 0 0 Z " fill="#8B52FF" transform="translate(348,60)"/>
<path d="M0 0 C2.5 2 2.5 2 4 4 C3.1875 5.9375 3.1875 5.9375 2 8 C-1 9 -1 9 -2 9 C-1.030625 9.639375 -0.06125 10.27875 0.9375 10.9375 C4 13 4 13 5 14 C5.375 17.3125 5.375 17.3125 5 21 C2.19918285 24.4134959 0.43732149 24.9375255 -3.9375 25.5625 C-8.63350879 25.33972918 -10.8227212 23.33614274 -14 20 C-14 19.34 -14 18.68 -14 18 C-10.32937509 16.42687504 -8.55697326 15.85559952 -4.625 16.875 C-3.75875 17.24625 -2.8925 17.6175 -2 18 C-2 17.34 -2 16.68 -2 16 C-2.62648438 15.81824219 -3.25296875 15.63648437 -3.8984375 15.44921875 C-4.71570313 15.19785156 -5.53296875 14.94648437 -6.375 14.6875 C-7.18710937 14.44386719 -7.99921875 14.20023438 -8.8359375 13.94921875 C-11 13 -11 13 -13 10 C-12.87059529 6.3766682 -12.75012072 3.93014969 -10.4375 1.0625 C-6.93177372 -0.4656371 -3.7606864 -0.73210084 0 0 Z " fill="#8B52FF" transform="translate(273,60)"/>
<path d="M0 0 C2.5 2 2.5 2 4 4 C3.1875 5.9375 3.1875 5.9375 2 8 C-1 9 -1 9 -2 9 C-1.030625 9.639375 -0.06125 10.27875 0.9375 10.9375 C4 13 4 13 5 14 C5.375 17.3125 5.375 17.3125 5 21 C2.19918285 24.4134959 0.43732149 24.9375255 -3.9375 25.5625 C-8.63350879 25.33972918 -10.8227212 23.33614274 -14 20 C-14 19.34 -14 18.68 -14 18 C-10.32937509 16.42687504 -8.55697326 15.85559952 -4.625 16.875 C-3.75875 17.24625 -2.8925 17.6175 -2 18 C-2 17.34 -2 16.68 -2 16 C-2.62648438 15.81824219 -3.25296875 15.63648437 -3.8984375 15.44921875 C-4.71570312 15.19785156 -5.53296875 14.94648437 -6.375 14.6875 C-7.18710937 14.44386719 -7.99921875 14.20023438 -8.8359375 13.94921875 C-11 13 -11 13 -13 10 C-12.87059529 6.3766682 -12.75012072 3.93014969 -10.4375 1.0625 C-6.93177372 -0.4656371 -3.7606864 -0.73210084 0 0 Z " fill="#8B53FF" transform="translate(30,60)"/>
<path d="M0 0 C0 0.33 0 0.66 0 1 C2.475 1.495 2.475 1.495 5 2 C5 1.34 5 0.68 5 0 C5.66 0 6.32 0 7 0 C7 0.66 7 1.32 7 2 C10.96 2 14.92 2 19 2 C17.47903372 5.80241571 15.85989732 9.36474615 14 13 C11.36 13 8.72 13 6 13 C7.32 10.03 8.64 7.06 10 4 C9.34 4 8.68 4 8 4 C7.71125 4.928125 7.4225 5.85625 7.125 6.8125 C6 10 6 10 4 13 C3.34 12.67 2.68 12.34 2 12 C2.495 11.05125 2.99 10.1025 3.5 9.125 C5.14424369 6.27721834 5.14424369 6.27721834 5 4 C3.35 6.97 1.7 9.94 0 13 C-0.99 13 -1.98 13 -3 13 C-3 10.03 -3 7.06 -3 4 C-3.66 4 -4.32 4 -5 4 C-5.06058594 4.63808594 -5.12117188 5.27617188 -5.18359375 5.93359375 C-5.26738281 6.75988281 -5.35117188 7.58617188 -5.4375 8.4375 C-5.51871094 9.26121094 -5.59992188 10.08492187 -5.68359375 10.93359375 C-6 13 -6 13 -7 14 C-9.67058851 14.14115161 -12.32432238 14.04247107 -15 14 C-15.05399736 12.54207116 -15.09279177 11.08357288 -15.125 9.625 C-15.15980469 8.40683594 -15.15980469 8.40683594 -15.1953125 7.1640625 C-15 5 -15 5 -13 3 C-11.68 3 -10.36 3 -9 3 C-9 2.34 -9 1.68 -9 1 C-6.04335481 -0.4783226 -3.25770263 -0.06032783 0 0 Z " fill="#7345D2" transform="translate(97,118)"/>
<path d="M0 0 C2.84766278 0.49834099 3.73470379 1.20765215 5.5 3.4375 C6.16 2.4475 6.82 1.4575 7.5 0.4375 C9.9375 0 9.9375 0 12.5 0.4375 C14.95754893 2.64081973 15.44640478 4.12262808 16 7.375 C15.5 10.4375 15.5 10.4375 13.75 13.3125 C8.98031091 16.43114287 4.0534513 16.54513472 -1.5 15.4375 C-3.84375 13.62109375 -3.84375 13.62109375 -5.5 11.4375 C-5.96433455 7.72282359 -5.95959365 5.38087643 -4.3125 2 C-2.5 0.4375 -2.5 0.4375 0 0 Z " fill="#834EE9" transform="translate(43.5,150.5625)"/>
<path d="M0 0 C6.27 0 12.54 0 19 0 C19 2.31 19 4.62 19 7 C17.02 7 15.04 7 13 7 C13 12.94 13 18.88 13 25 C10.69 25 8.38 25 6 25 C6 19.06 6 13.12 6 7 C4.02 7 2.04 7 0 7 C0 4.69 0 2.38 0 0 Z " fill="#8A52FF" transform="translate(286,60)"/>
<path d="M0 0 C6.27 0 12.54 0 19 0 C19 2.31 19 4.62 19 7 C17.02 7 15.04 7 13 7 C13 12.94 13 18.88 13 25 C10.69 25 8.38 25 6 25 C6 19.06 6 13.12 6 7 C4.02 7 2.04 7 0 7 C0 4.69 0 2.38 0 0 Z " fill="#8B53FF" transform="translate(70,60)"/>
<path d="M0 0 C0 1.98 0 3.96 0 6 C-6.74837534 8.92325936 -13.56055938 11.09249682 -20.64453125 13.0546875 C-27.98838663 15.08179258 -27.98838663 15.08179258 -35 18 C-35.73075648 20.3140622 -36.40138258 22.64828869 -37 25 C-37.33 25 -37.66 25 -38 25 C-38.02688151 23.35425434 -38.04634123 21.70838587 -38.0625 20.0625 C-38.07410156 19.14597656 -38.08570313 18.22945312 -38.09765625 17.28515625 C-38 15 -38 15 -37 14 C-37.66 13.34 -38.32 12.68 -39 12 C-33.92989904 10.28526381 -28.85786321 8.57642653 -23.78393555 6.87304688 C-22.05780326 6.29263794 -20.33221272 5.71061526 -18.60717773 5.12695312 C-16.12884623 4.28872539 -13.64863015 3.45630328 -11.16796875 2.625 C-10.01001045 2.23127197 -10.01001045 2.23127197 -8.82865906 1.82958984 C-5.77240588 0.8105184 -3.24447245 0 0 0 Z " fill="#8951E5" transform="translate(44,110)"/>
<path d="M0 0 C11.55 0 23.1 0 35 0 C35 2.31 35 4.62 35 7 C23.45 7 11.9 7 0 7 C0 4.69 0 2.38 0 0 Z " fill="#05030A" transform="translate(123,159)"/>
<path d="M0 0 C2.31 0 4.62 0 7 0 C7 5.94 7 11.88 7 18 C9.97 18 12.94 18 16 18 C16 20.31 16 22.62 16 25 C10.72 25 5.44 25 0 25 C0 16.75 0 8.5 0 0 Z " fill="#8A52FF" transform="translate(149,60)"/>
<path d="M0 0 C0.66 0 1.32 0 2 0 C2 12.21 2 24.42 2 37 C-2.805625 37.020625 -7.61125 37.04125 -12.5625 37.0625 C-14.06498291 37.071604 -15.56746582 37.08070801 -17.11547852 37.09008789 C-18.91650024 37.09383423 -18.91650024 37.09383423 -20.75390625 37.09765625 C-21.97408447 37.10289307 -23.1942627 37.10812988 -24.45141602 37.11352539 C-28.03512057 36.99887643 -31.46312255 36.57327963 -35 36 C-35 35.67 -35 35.34 -35 35 C-31.85591216 34.48860403 -28.70951427 33.99303964 -25.5625 33.5 C-24.68400391 33.35691406 -23.80550781 33.21382812 -22.90039062 33.06640625 C-17.19328375 32.18190998 -11.77505428 31.85900173 -6 32 C-5.95101562 31.01257813 -5.90203125 30.02515625 -5.8515625 29.0078125 C-5.77679688 27.72648437 -5.70203125 26.44515625 -5.625 25.125 C-5.55539063 23.84882813 -5.48578125 22.57265625 -5.4140625 21.2578125 C-5 18 -5 18 -3 16 C-2.505 24.91 -2.505 24.91 -2 34 C-1.01 34.495 -1.01 34.495 0 35 C0 23.45 0 11.9 0 0 Z " fill="#824ED7" transform="translate(47,108)"/>
<path d="M0 0 C2.625 0.3125 2.625 0.3125 4.375 2.125 C6.73867149 6.2614251 6.71336573 9.62911651 6.625 14.3125 C7.615 14.3125 8.605 14.3125 9.625 14.3125 C9.625 12.0025 9.625 9.6925 9.625 7.3125 C9.955 7.3125 10.285 7.3125 10.625 7.3125 C10.625 10.9425 10.625 14.5725 10.625 18.3125 C12.605 18.3125 14.585 18.3125 16.625 18.3125 C16.3125 20.1875 16.3125 20.1875 15.625 22.3125 C12.20405758 24.59312828 10.94312778 24.53175007 6.9375 24.4375 C5.44669922 24.41042969 5.44669922 24.41042969 3.92578125 24.3828125 C3.16652344 24.35960937 2.40726562 24.33640625 1.625 24.3125 C2.40875 23.755625 3.1925 23.19875 4 22.625 C6.71204858 20.23581435 7.58633543 18.71176587 8.625 15.3125 C7.7175 15.6425 6.81 15.9725 5.875 16.3125 C2.625 17.3125 2.625 17.3125 -1.375 17.3125 C-3.375 15.3125 -3.375 15.3125 -3.60546875 12.08984375 C-3.58419922 10.18912109 -3.58419922 10.18912109 -3.5625 8.25 C-3.55605469 6.98027344 -3.54960938 5.71054688 -3.54296875 4.40234375 C-3.32745116 0.43782252 -3.32745116 0.43782252 0 0 Z " fill="#693EB4" transform="translate(107.375,149.6875)"/>
<path d="M0 0 C0 13.86 0 27.72 0 42 C-3.63 42 -7.26 42 -11 42 C-11 41.67 -11 41.34 -11 41 C-9.02 41 -7.04 41 -5 41 C-5.01571045 39.86457764 -5.0314209 38.72915527 -5.04760742 37.55932617 C-5.10188032 33.34943731 -5.13634037 29.13957941 -5.16479492 24.92944336 C-5.1798876 23.10679933 -5.20036395 21.28419164 -5.22631836 19.46166992 C-5.26268103 16.842845 -5.27972124 14.22449993 -5.29296875 11.60546875 C-5.30845261 10.78974899 -5.32393646 9.97402924 -5.33988953 9.1335907 C-5.34159013 3.42550661 -5.34159013 3.42550661 -3.60371399 1.26069641 C-2 0 -2 0 0 0 Z " fill="#000000" transform="translate(75,114)"/>
<path d="M0 0 C0.33 0 0.66 0 1 0 C1 6.93 1 13.86 1 21 C-2.63 21 -6.26 21 -10 21 C-10 23.64 -10 26.28 -10 29 C1.88 29 13.76 29 26 29 C26 29.33 26 29.66 26 30 C25.43490723 30.02505615 24.86981445 30.0501123 24.28759766 30.07592773 C21.73316258 30.19179956 19.1791045 30.31456537 16.625 30.4375 C15.29082031 30.49647461 15.29082031 30.49647461 13.9296875 30.55664062 C13.07890625 30.59853516 12.228125 30.64042969 11.3515625 30.68359375 C10.17327881 30.73858032 10.17327881 30.73858032 8.97119141 30.79467773 C6.92476504 30.890891 6.92476504 30.890891 5 32 C2.75174913 32.09800068 0.50038076 32.12974764 -1.75 32.125 C-2.96171875 32.12757813 -4.1734375 32.13015625 -5.421875 32.1328125 C-8.70974633 32.01077361 -11.77406537 31.62341681 -15 31 C-15 27.37 -15 23.74 -15 20 C-12.03 20 -9.06 20 -6 20 C-6.99 17.36 -7.98 14.72 -9 12 C-7.68 12 -6.36 12 -5 12 C-5 14.64 -5 17.28 -5 20 C-3.68 20 -2.36 20 -1 20 C-1.00523682 19.42967041 -1.01047363 18.85934082 -1.01586914 18.27172852 C-1.03658221 15.70199677 -1.0496419 13.13228253 -1.0625 10.5625 C-1.07087891 9.66466797 -1.07925781 8.76683594 -1.08789062 7.84179688 C-1.09111328 6.98779297 -1.09433594 6.13378906 -1.09765625 5.25390625 C-1.10289307 4.46314697 -1.10812988 3.6723877 -1.11352539 2.85766602 C-1 1 -1 1 0 0 Z " fill="#9559FD" transform="translate(133,137)"/>
<path d="M0 0 C1.67542976 0.28604898 3.34385343 0.61781233 5 1 C5.02886984 4.97915159 5.04675406 8.95827653 5.0625 12.9375 C5.07087891 14.07380859 5.07925781 15.21011719 5.08789062 16.38085938 C5.09111328 17.46044922 5.09433594 18.54003906 5.09765625 19.65234375 C5.10289307 20.65257568 5.10812988 21.65280762 5.11352539 22.68334961 C5 25 5 25 4 26 C2.00041636 26.04080783 -0.00045254 26.04254356 -2 26 C-2 25.67 -2 25.34 -2 25 C-11.57 24.67 -21.14 24.34 -31 24 C-31 23.67 -31 23.34 -31 23 C-16.15 22.505 -16.15 22.505 -1 22 C-1.03958469 15.13387193 -1.03958469 15.13387193 -1.09008789 8.26782227 C-1.09258545 7.41760498 -1.09508301 6.5673877 -1.09765625 5.69140625 C-1.10551147 4.37958374 -1.10551147 4.37958374 -1.11352539 3.04125977 C-1 1 -1 1 0 0 Z " fill="#9055FE" transform="translate(112,93)"/>
<path d="M0 0 C2.31 0 4.62 0 7 0 C7 8.25 7 16.5 7 25 C4.69 25 2.38 25 0 25 C0 16.75 0 8.5 0 0 Z " fill="#8A53FF" transform="translate(314,60)"/>
<path d="M0 0 C0.99 0 1.98 0 3 0 C3 22.44 3 44.88 3 68 C2.34 68 1.68 68 1 68 C1 53.48 1 38.96 1 24 C-2.3 23.67 -5.6 23.34 -9 23 C-9 22.67 -9 22.34 -9 22 C-5.7 22 -2.4 22 1 22 C0.835 20.783125 0.67 19.56625 0.5 18.3125 C-0.19161175 12.2146274 -0.08524443 6.12812763 0 0 Z " fill="#995BFE" transform="translate(75,89)"/>
<path d="M0 0 C1.98 0 3.96 0 6 0 C6 8.25 6 16.5 6 25 C4.02 25 2.04 25 0 25 C0 16.75 0 8.5 0 0 Z " fill="#8A53FF" transform="translate(243,60)"/>
<path d="M0 0 C0.33 0 0.66 0 1 0 C1 2.97 1 5.94 1 9 C1.66 9 2.32 9 3 9 C3.33 7.02 3.66 5.04 4 3 C5.32 3.33 6.64 3.66 8 4 C8.59732819 6.76264289 9 9.16032769 9 12 C9.98189187 13.67739862 10.98133771 15.34467377 12 17 C12 17.66 12 18.32 12 19 C8.04 19 4.08 19 0 19 C0 12.73 0 6.46 0 0 Z " fill="#1D1133" transform="translate(149,138)"/>
<path d="M0 0 C0.33 0 0.66 0 1 0 C1 4.29 1 8.58 1 13 C2.77375 12.979375 4.5475 12.95875 6.375 12.9375 C11.75 12.875 11.75 12.875 14 14 C14 16.64 14 19.28 14 22 C9.38 22 4.76 22 0 22 C0 14.74 0 7.48 0 0 Z " fill="#06030B" transform="translate(79,89)"/>
<path d="M0 0 C8.77777778 0 8.77777778 0 13 1 C13.33 1.33 13.66 1.66 14 2 C13.28 8.72 13.28 8.72 12 10 C10.19072719 10.12487758 8.37603893 10.17570846 6.5625 10.1875 C5.57378906 10.20167969 4.58507812 10.21585938 3.56640625 10.23046875 C1 10 1 10 -1 8 C-1.33333333 2.66666667 -1.33333333 2.66666667 0 0 Z " fill="#3D246D" transform="translate(3,151)"/>
<path d="M0 0 C0 0.99 0 1.98 0 3 C-0.64960693 3.19634033 -1.29921387 3.39268066 -1.96850586 3.5949707 C-4.95856639 4.49951119 -7.94803495 5.40599351 -10.9375 6.3125 C-11.95908203 6.62123047 -12.98066406 6.92996094 -14.03320312 7.24804688 C-24.22300487 10.0754837 -24.22300487 10.0754837 -34 14 C-34.73075648 16.3140622 -35.40138258 18.64828869 -36 21 C-36.33 21 -36.66 21 -37 21 C-37 17.7 -37 14.4 -37 11 C-9.21052632 0 -9.21052632 0 0 0 Z " fill="#08050F" transform="translate(43,114)"/>
<path d="M0 0 C2.4375 -0.4375 2.4375 -0.4375 5 0 C7.45754893 2.20331973 7.94640478 3.68512808 8.5 6.9375 C7.84071734 10.97560631 6.05642079 12.40204233 3 15 C-0.875 13.25 -0.875 13.25 -2 11 C-2.35555556 3.53333333 -2.35555556 3.53333333 0 0 Z " fill="#8F55F5" transform="translate(51,151)"/>
<path d="M0 0 C0.33 1.32 0.66 2.64 1 4 C-0.299375 3.814375 -1.59875 3.62875 -2.9375 3.4375 C-5.08575543 3.1018371 -5.08575543 3.1018371 -7 3 C-8.35618499 4.12534105 -8.35618499 4.12534105 -8.0625 7.0625 C-8.041875 8.031875 -8.02125 9.00125 -8 10 C-6.0085944 10.38133299 -4.00720923 10.71325582 -2 11 C-1.67 10.67 -1.34 10.34 -1 10 C-2.32 9.67 -3.64 9.34 -5 9 C-5 8.01 -5 7.02 -5 6 C-2.36 6 0.28 6 3 6 C3 8.64 3 11.28 3 14 C-4.23553009 15.34899713 -4.23553009 15.34899713 -7.875 13.6875 C-11.94008559 10.45934379 -11.94008559 10.45934379 -12.375 7.125 C-11.92056457 3.33803807 -10.93500208 2.33073695 -8 0 C-5.13822943 -1.43088528 -3.06624227 -0.59991697 0 0 Z " fill="#8B52FF" transform="translate(381,124)"/>
<path d="M0 0 C1 1 1 1 1 4.75 C0.9896875 5.46671875 0.979375 6.1834375 0.96875 6.921875 C1.00558125 9.37115342 1.40670669 11.62682678 2 14 C1.01 14 0.02 14 -1 14 C-1.33 12.35 -1.66 10.7 -2 9 C-3.65 9 -5.3 9 -7 9 C-7 10.65 -7 12.3 -7 14 C-7.99 14 -8.98 14 -10 14 C-10 9.38 -10 4.76 -10 0 C-6.28523623 -1.23825459 -3.81171187 -0.70587257 0 0 Z M-7 2 C-7 3.32 -7 4.64 -7 6 C-5.35 6 -3.7 6 -2 6 C-2 4.68 -2 3.36 -2 2 C-3.65 2 -5.3 2 -7 2 Z " fill="#8A50FF" transform="translate(275,124)"/>
<path d="M0 0 C0.33 0 0.66 0 1 0 C1 6.27 1 12.54 1 19 C-9.69298219 19.61542344 -20.28871904 20.17307276 -31 20 C-31 19.67 -31 19.34 -31 19 C-27.85591216 18.48860403 -24.70951427 17.99303964 -21.5625 17.5 C-20.68400391 17.35691406 -19.80550781 17.21382812 -18.90039062 17.06640625 C-13.19328375 16.18190998 -7.77505428 15.85900173 -2 16 C-1.90912109 14.51886719 -1.90912109 14.51886719 -1.81640625 13.0078125 C-1.73261719 11.72648438 -1.64882813 10.44515625 -1.5625 9.125 C-1.48128906 7.84882813 -1.40007813 6.57265625 -1.31640625 5.2578125 C-1 2 -1 2 0 0 Z " fill="#1F1238" transform="translate(43,124)"/>
<path d="M0 0 C2.93456406 0.95692306 4.1605743 1.41097792 5.875 3.9375 C7.04317193 7.10825239 7.06335977 8.46106058 5.8125 11.625 C3.33211142 14.58546379 1.67688346 15.32919865 -2.125 15.9375 C-5.68946721 14.39829825 -6.95347773 13.19478341 -9.125 9.9375 C-9.04253154 6.06148253 -8.54582539 4.40641972 -5.9375 1.5 C-3.125 -0.0625 -3.125 -0.0625 0 0 Z M-4.125 2.9375 C-4.785 3.5975 -5.445 4.2575 -6.125 4.9375 C-5.80173447 8.53429066 -5.80173447 8.53429066 -5.125 11.9375 C-1.04799075 13.06187693 -1.04799075 13.06187693 2.8125 11.875 C4.37454362 9.02656752 3.62421024 7.00245097 2.875 3.9375 C-0.52820934 3.26076553 -0.52820934 3.26076553 -4.125 2.9375 Z " fill="#8B52FF" transform="translate(352.125,123.0625)"/>
<path d="M0 0 C3.63 0 7.26 0 11 0 C9.8905928 3.48670834 8.73662334 6.77484237 7 10 C4.36 10 1.72 10 -1 10 C0.32 7.03 1.64 4.06 3 1 C2.34 1 1.68 1 1 1 C0.71125 1.928125 0.4225 2.85625 0.125 3.8125 C-1 7 -1 7 -3 10 C-3.66 9.67 -4.32 9.34 -5 9 C-3.35 6.03 -1.7 3.06 0 0 Z " fill="#05030A" transform="translate(104,121)"/>
<path d="M0 0 C2.9375 0.1875 2.9375 0.1875 3.9375 1.1875 C4.0354057 2.68488124 4.06724864 4.18692892 4.0625 5.6875 C4.06507812 6.5021875 4.06765625 7.316875 4.0703125 8.15625 C3.9375 10.1875 3.9375 10.1875 2.9375 11.1875 C0.26691149 11.32865161 -2.38682238 11.22997107 -5.0625 11.1875 C-5.11649736 9.72957116 -5.15529177 8.27107288 -5.1875 6.8125 C-5.22230469 5.59433594 -5.22230469 5.59433594 -5.2578125 4.3515625 C-4.92342619 0.64656222 -3.54203299 0.21685916 0 0 Z " fill="#150D28" transform="translate(87.0625,120.8125)"/>
<path d="M0 0 C2.4375 0.6875 2.4375 0.6875 4.4375 1.6875 C4.4375 2.6775 4.4375 3.6675 4.4375 4.6875 C2.1275 4.3575 -0.1825 4.0275 -2.5625 3.6875 C-0.68949957 5.85428256 -0.68949957 5.85428256 2 6.5625 C4.4375 7.6875 4.4375 7.6875 5.4375 9.625 C5.4375 11.6875 5.4375 11.6875 4.25 13.375 C2.1622789 14.88679804 1.02205516 15.53546734 -1.5625 15.6875 C-4.3125 14.375 -4.3125 14.375 -6.5625 12.6875 C-6.5625 12.0275 -6.5625 11.3675 -6.5625 10.6875 C-3.9225 11.0175 -1.2825 11.3475 1.4375 11.6875 C1.7675 11.0275 2.0975 10.3675 2.4375 9.6875 C1.32375 9.39875 0.21 9.11 -0.9375 8.8125 C-4.5625 7.6875 -4.5625 7.6875 -6.5625 5.6875 C-6.375 3.6875 -6.375 3.6875 -5.5625 1.6875 C-2.5625 -0.3125 -2.5625 -0.3125 0 0 Z " fill="#8D51FF" transform="translate(413.5625,123.3125)"/>
<path d="M0 0 C0.33 0.99 0.66 1.98 1 3 C-1.64 3 -4.28 3 -7 3 C-7 4.32 -7 5.64 -7 7 C-5.02 7 -3.04 7 -1 7 C-1 7.66 -1 8.32 -1 9 C-2.98 9 -4.96 9 -7 9 C-7 10.32 -7 11.64 -7 13 C-4.36 13 -1.72 13 1 13 C1 13.66 1 14.32 1 15 C-2.63 15 -6.26 15 -10 15 C-10 10.38 -10 5.76 -10 1 C-6.52674819 -0.1577506 -3.63932552 -0.06866652 0 0 Z " fill="#8B52FF" transform="translate(297,123)"/>
<path d="M0 0 C4.07502794 -0.07420211 8.14979392 -0.1286257 12.2253418 -0.16479492 C13.61147919 -0.17987397 14.99756894 -0.2003405 16.38354492 -0.22631836 C18.37658146 -0.26273716 20.36996723 -0.27813018 22.36328125 -0.29296875 C23.56251221 -0.3086792 24.76174316 -0.32438965 25.99731445 -0.34057617 C29 0 29 0 32 3 C21.44 3 10.88 3 0 3 C0 2.01 0 1.02 0 0 Z " fill="#06040C" transform="translate(79,113)"/>
<path d="M0 0 C2.4375 0.875 2.4375 0.875 3.75 2.9375 C4.0903125 3.8965625 4.0903125 3.8965625 4.4375 4.875 C3.4475 4.875 2.4575 4.875 1.4375 4.875 C1.4375 4.215 1.4375 3.555 1.4375 2.875 C-0.5425 3.865 -0.5425 3.865 -2.5625 4.875 C-1.593125 5.266875 -0.62375 5.65875 0.375 6.0625 C3.4375 7.875 3.4375 7.875 4.3125 10.5625 C4.374375 11.7071875 4.374375 11.7071875 4.4375 12.875 C2.8125 14.5 2.8125 14.5 0.4375 15.875 C-2.75 15.25 -2.75 15.25 -5.5625 13.875 C-5.8925 12.885 -6.2225 11.895 -6.5625 10.875 C-3.9225 11.205 -1.2825 11.535 1.4375 11.875 C1.7675 11.215 2.0975 10.555 2.4375 9.875 C1.32375 9.58625 0.21 9.2975 -0.9375 9 C-4.5625 7.875 -4.5625 7.875 -6.5625 5.875 C-6.375 3.875 -6.375 3.875 -5.5625 1.875 C-2.5625 -0.125 -2.5625 -0.125 0 0 Z " fill="#8B53FF" transform="translate(495.5625,123.125)"/>
<path d="M0 0 C0.33 1.32 0.66 2.64 1 4 C-0.299375 3.814375 -1.59875 3.62875 -2.9375 3.4375 C-5.08575543 3.1018371 -5.08575543 3.1018371 -7 3 C-8.35618499 4.12534105 -8.35618499 4.12534105 -8.0625 7.0625 C-8.041875 8.031875 -8.02125 9.00125 -8 10 C-5.09926819 10.67801034 -5.09926819 10.67801034 -2 11 C-1.34 10.34 -0.68 9.68 0 9 C0.99 9 1.98 9 3 9 C1.95578741 12.13263778 1.18810414 12.90385789 -1.8125 14.4375 C-5 15 -5 15 -7.75 13.75 C-11.93548387 10.49462366 -11.93548387 10.49462366 -12.375 7.125 C-11.92056457 3.33803807 -10.93500208 2.33073695 -8 0 C-5.13822943 -1.43088528 -3.06624227 -0.59991697 0 0 Z " fill="#8B52FF" transform="translate(476,124)"/>
<path d="M0 0 C0.99 0 1.98 0 3 0 C3.33 3.3 3.66 6.6 4 10 C5.32 10.33 6.64 10.66 8 11 C8.33 7.37 8.66 3.74 9 0 C9.99 0 10.98 0 12 0 C12.28783441 3.70986572 12.45251957 7.29998705 12 11 C9.5 13.6875 9.5 13.6875 7 15 C2.3437863 13.52961672 2.3437863 13.52961672 0.84375 11.21875 C-0.10328044 8.7284107 -0.20303291 6.90311901 -0.125 4.25 C-0.10695312 3.45078125 -0.08890625 2.6515625 -0.0703125 1.828125 C-0.04710937 1.22484375 -0.02390625 0.6215625 0 0 Z " fill="#8C51FF" transform="translate(243,124)"/>
<path d="M0 0 C6.93 0 13.86 0 21 0 C18 4 18 4 14.53125 4.53125 C13.18750145 4.54185157 11.84343948 4.53070719 10.5 4.5 C9.48486328 4.52320313 9.48486328 4.52320313 8.44921875 4.546875 C6.46875 4.53125 6.46875 4.53125 3 4 C2.01 2.68 1.02 1.36 0 0 Z " fill="#010103" transform="translate(138,168)"/>
<path d="M0 0 C0.763125 0.0825 1.52625 0.165 2.3125 0.25 C0.9925 0.58 -0.3275 0.91 -1.6875 1.25 C-1.6875 4.22 -1.6875 7.19 -1.6875 10.25 C-1.0275 10.58 -0.3675 10.91 0.3125 11.25 C-0.0175 9.27 -0.3475 7.29 -0.6875 5.25 C-0.0275 5.58 0.6325 5.91 1.3125 6.25 C1.3125 6.91 1.3125 7.57 1.3125 8.25 C1.9725 7.59 2.6325 6.93 3.3125 6.25 C3.68173077 11.78846154 3.68173077 11.78846154 1.8125 14.125 C1.07 14.681875 1.07 14.681875 0.3125 15.25 C-4.5625 13.5 -4.5625 13.5 -5.6875 11.25 C-5.95419049 7.64967833 -6.09685434 5.09025365 -4.5 1.8125 C-2.6875 0.25 -2.6875 0.25 0 0 Z " fill="#8650F1" transform="translate(43.6875,150.75)"/>
<path d="M0 0 C0.66 0 1.32 0 2 0 C2.33 3.3 2.66 6.6 3 10 C4.32 10.33 5.64 10.66 7 11 C8.66342837 9.33657163 8.36048097 7.2174291 8.5625 4.9375 C8.64628906 4.01839844 8.73007813 3.09929687 8.81640625 2.15234375 C8.87699219 1.44207031 8.93757812 0.73179688 9 0 C9.66 0 10.32 0 11 0 C11.13504138 1.93559313 11.23201129 3.873872 11.3125 5.8125 C11.39951172 7.43091797 11.39951172 7.43091797 11.48828125 9.08203125 C11 12 11 12 8.65234375 13.9296875 C6 15 6 15 3.25 14.3125 C1 13 1 13 0 11 C-0.07033769 9.12620395 -0.0843022 7.24998898 -0.0625 5.375 C-0.05347656 4.37210938 -0.04445312 3.36921875 -0.03515625 2.3359375 C-0.02355469 1.56507812 -0.01195312 0.79421875 0 0 Z " fill="#8C52FF" transform="translate(200,124)"/>
<path d="M0 0 C0.99 0.33 1.98 0.66 3 1 C3 8.26 3 15.52 3 23 C2.01 23 1.02 23 0 23 C0 15.41 0 7.82 0 0 Z " fill="#180E2C" transform="translate(114,93)"/>
<path d="M0 0 C1.45823212 -0.0270043 2.91660675 -0.04639787 4.375 -0.0625 C5.18710938 -0.07410156 5.99921875 -0.08570312 6.8359375 -0.09765625 C9 0 9 0 11 1 C11 1.66 11 2.32 11 3 C9.68 3 8.36 3 7 3 C7 6.96 7 10.92 7 15 C6.01 15 5.02 15 4 15 C4 11.04 4 7.08 4 3 C2.68 3 1.36 3 0 3 C0 2.01 0 1.02 0 0 Z " fill="#8B53FF" transform="translate(222,123)"/>
<path d="M0 0 C1.22589844 0.01353516 1.22589844 0.01353516 2.4765625 0.02734375 C3.41628906 0.04474609 3.41628906 0.04474609 4.375 0.0625 C4.375 1.0525 4.375 2.0425 4.375 3.0625 C3.055 3.0625 1.735 3.0625 0.375 3.0625 C0.375 7.0225 0.375 10.9825 0.375 15.0625 C-0.615 15.0625 -1.605 15.0625 -2.625 15.0625 C-2.625 11.4325 -2.625 7.8025 -2.625 4.0625 C-3.945 3.7325 -5.265 3.4025 -6.625 3.0625 C-6.625 2.4025 -6.625 1.7425 -6.625 1.0625 C-4.21954362 -0.14022819 -2.67503047 -0.03821472 0 0 Z " fill="#8B52FF" transform="translate(435.625,122.9375)"/>
<path d="M0 0 C0 0.99 0 1.98 0 3 C-2.64 3 -5.28 3 -8 3 C-8 4.32 -8 5.64 -8 7 C-6.02 7 -4.04 7 -2 7 C-2 7.66 -2 8.32 -2 9 C-3.98 9 -5.96 9 -8 9 C-8 10.98 -8 12.96 -8 15 C-8.66 15 -9.32 15 -10 15 C-10 10.38 -10 5.76 -10 1 C-6.78548731 -0.60725635 -3.56387464 -0.05748185 0 0 Z " fill="#8B53FF" transform="translate(189,123)"/>
<path d="M0 0 C0.33 0.66 0.66 1.32 1 2 C3.31 2 5.62 2 8 2 C7.6875 3.875 7.6875 3.875 7 6 C3.57905758 8.28062828 2.31812778 8.21925007 -1.6875 8.125 C-3.17830078 8.09792969 -3.17830078 8.09792969 -4.69921875 8.0703125 C-5.45847656 8.04710937 -6.21773438 8.02390625 -7 8 C-6.21625 7.4225 -5.4325 6.845 -4.625 6.25 C-2.19952756 4.17102363 -1.14305583 2.90959667 0 0 Z " fill="#06040C" transform="translate(116,166)"/>
<path d="M0 0 C0 3.63 0 7.26 0 11 C-7.59 11 -15.18 11 -23 11 C-23 10.67 -23 10.34 -23 10 C-17.06 9.67 -11.12 9.34 -5 9 C-5 6.69 -5 4.38 -5 2 C-1.125 0 -1.125 0 0 0 Z " fill="#7E4BE8" transform="translate(163,157)"/>
<path d="M0 0 C0.99 0 1.98 0 3 0 C3 3.96 3 7.92 3 12 C5.64 12 8.28 12 11 12 C11 12.66 11 13.32 11 14 C7.37 14 3.74 14 0 14 C0 9.38 0 4.76 0 0 Z " fill="#8B52FF" transform="translate(322,124)"/>
<path d="M0 0 C1.32 0.33 2.64 0.66 4 1 C4 4.3 4 7.6 4 11 C2.35 11 0.7 11 -1 11 C0.05875074 7.59687262 1.00902154 4.98646769 3 2 C0.43004926 3.28497537 0.09565537 4.49912373 -1.125 7.0625 C-1.47820312 7.79597656 -1.83140625 8.52945313 -2.1953125 9.28515625 C-2.59363281 10.13400391 -2.59363281 10.13400391 -3 11 C-3.66 11 -4.32 11 -5 11 C-3.77472971 6.94718288 -2.30119506 3.55639236 0 0 Z " fill="#180E2E" transform="translate(118,120)"/>
<path d="M0 0 C-8.58 0 -17.16 0 -26 0 C-26 -0.66 -26 -1.32 -26 -2 C-6.0489463 -4.03263086 -6.0489463 -4.03263086 0 0 Z " fill="#8750DE" transform="translate(106,113)"/>
<path d="M0 0 C0 0.66 0 1.32 0 2 C0.66 2.33 1.32 2.66 2 3 C-11.6332574 7.77676538 -11.6332574 7.77676538 -18 6 C-14.98494548 3.98996365 -12.42503788 3.00828459 -9 1.875 C-7.948125 1.52179688 -6.89625 1.16859375 -5.8125 0.8046875 C-3 0 -3 0 0 0 Z " fill="#824DD8" transform="translate(23,117)"/>
<path d="M0 0 C0.99 0 1.98 0 3 0 C3.33 0.99 3.66 1.98 4 3 C4.66 2.01 5.32 1.02 6 0 C7 1 7 1 7.0625 4.0625 C7.041875 5.031875 7.02125 6.00125 7 7 C4.50935112 7.68707555 2.62113708 8 0 8 C-1.125 2.25 -1.125 2.25 0 0 Z " fill="#583497" transform="translate(52,154)"/>
<path d="M0 0 C0.33 0 0.66 0 1 0 C1 5.94 1 11.88 1 18 C-0.98 18 -2.96 18 -5 18 C-4.67 17.34 -4.34 16.68 -4 16 C-3.34 16 -2.68 16 -2 16 C-1.93941406 15.01257813 -1.87882812 14.02515625 -1.81640625 13.0078125 C-1.73261719 11.72648438 -1.64882813 10.44515625 -1.5625 9.125 C-1.48128906 7.84882813 -1.40007813 6.57265625 -1.31640625 5.2578125 C-1 2 -1 2 0 0 Z " fill="#160D29" transform="translate(43,124)"/>
<path d="M0 0 C1.4540625 0.0309375 1.4540625 0.0309375 2.9375 0.0625 C1.2875 3.3625 -0.3625 6.6625 -2.0625 10.0625 C-2.7225 10.0625 -3.3825 10.0625 -4.0625 10.0625 C-4.08939216 8.58343108 -4.10884621 7.10422517 -4.125 5.625 C-4.13660156 4.80128906 -4.14820312 3.97757812 -4.16015625 3.12890625 C-4.00103255 -0.23815127 -3.43619093 0.07012635 0 0 Z " fill="#06030C" transform="translate(99.0625,120.9375)"/>
<path d="M0 0 C4.875 0.875 4.875 0.875 6 2 C5.71269945 4.33944736 5.38063221 6.6739143 5 9 C3.35 9.33 1.7 9.66 0 10 C0 9.01 0 8.02 0 7 C0.66 6.67 1.32 6.34 2 6 C1.67 5.01 1.34 4.02 1 3 C0.67 2.01 0.34 1.02 0 0 Z " fill="#8750E1" transform="translate(11,151)"/>
<path d="M0 0 C1.66611905 -0.042721 3.33382885 -0.04063832 5 0 C6 1 6 1 6.0625 3.5625 C6.041875 4.366875 6.02125 5.17125 6 6 C5.67 5.34 5.34 4.68 5 4 C4.01 3.67 3.02 3.34 2 3 C2 4.32 2 5.64 2 7 C2.99 7 3.98 7 5 7 C4.67 7.99 4.34 8.98 4 10 C0.125 9.125 0.125 9.125 -1 8 C-1.23529412 2.47058824 -1.23529412 2.47058824 0 0 Z " fill="#8952E8" transform="translate(3,151)"/>
<path d="M0 0 C0.99 0 1.98 0 3 0 C3 4.62 3 9.24 3 14 C2.01 14 1.02 14 0 14 C0 9.38 0 4.76 0 0 Z " fill="#8B53FF" transform="translate(451,124)"/>
<path d="M0 0 C0.99 0 1.98 0 3 0 C3 4.62 3 9.24 3 14 C2.01 14 1.02 14 0 14 C0 9.38 0 4.76 0 0 Z " fill="#8A52FF" transform="translate(394,124)"/>
<path d="M0 0 C1.65 0 3.3 0 5 0 C4.5155542 0.40323486 4.0311084 0.80646973 3.53198242 1.22192383 C1.63082835 3.42847445 1.5848884 4.57032554 1.48828125 7.44921875 C1.45283203 8.29677734 1.41738281 9.14433594 1.38085938 10.01757812 C1.35830078 10.89865234 1.33574219 11.77972656 1.3125 12.6875 C1.27833984 13.58017578 1.24417969 14.47285156 1.20898438 15.39257812 C1.12655533 17.59461121 1.06159953 19.79728582 1 22 C3.97 22 6.94 22 10 22 C10 22.33 10 22.66 10 23 C6.7 23 3.4 23 0 23 C0 15.41 0 7.82 0 0 Z " fill="#A562FE" transform="translate(4,123)"/>
<path d="M0 0 C0 0.99 0 1.98 0 3 C-1.43554025 3.50559908 -2.8735202 4.0042749 -4.3125 4.5 C-5.51326172 4.91765625 -5.51326172 4.91765625 -6.73828125 5.34375 C-9 6 -9 6 -12 6 C-12.33 5.01 -12.66 4.02 -13 3 C-11.2092015 2.49689942 -9.41733089 1.99761372 -7.625 1.5 C-6.62726562 1.2215625 -5.62953125 0.943125 -4.6015625 0.65625 C-2 0 -2 0 0 0 Z " fill="#160D26" transform="translate(43,114)"/>
<path d="M0 0 C0.99 0 1.98 0 3 0 C3 2.64 3 5.28 3 8 C1.68 8 0.36 8 -1 8 C-1.04241723 5.66705225 -1.04092937 3.33297433 -1 1 C-0.67 0.67 -0.34 0.34 0 0 Z " fill="#9458FA" transform="translate(107,157)"/>
<path d="M0 0 C2.64 0 5.28 0 8 0 C8 1.32 8 2.64 8 4 C5.36 4 2.72 4 0 4 C0 2.68 0 1.36 0 0 Z " fill="#985AFE" transform="translate(119,143)"/>
<path d="M0 0 C0 1.98 0 3.96 0 6 C-0.33 5.34 -0.66 4.68 -1 4 C-1.763125 4.226875 -2.52625 4.45375 -3.3125 4.6875 C-4.199375 4.790625 -5.08625 4.89375 -6 5 C-7.8125 3.5625 -7.8125 3.5625 -9 2 C-3.375 0 -3.375 0 0 0 Z " fill="#7C4AD5" transform="translate(44,110)"/>
<path d="M0 0 C0.33 0 0.66 0 1 0 C1 2.97 1 5.94 1 9 C-0.65 9 -2.3 9 -4 9 C-2.94124926 5.59687262 -1.99097846 2.98646769 0 0 Z " fill="#07040E" transform="translate(121,122)"/>
<path d="M0 0 C-0.33 0.99 -0.66 1.98 -1 3 C-3.50390625 3.94921875 -3.50390625 3.94921875 -6.5625 4.6875 C-7.57441406 4.93886719 -8.58632813 5.19023438 -9.62890625 5.44921875 C-10.41136719 5.63097656 -11.19382812 5.81273438 -12 6 C-11 3 -11 3 -9.2578125 2.05078125 C-8.55398437 1.80714844 -7.85015625 1.56351562 -7.125 1.3125 C-6.42632812 1.06113281 -5.72765625 0.80976562 -5.0078125 0.55078125 C-3 0 -3 0 0 0 Z " fill="#050308" transform="translate(31,118)"/>
<path d="M0 0 C1.32 0.33 2.64 0.66 4 1 C4.33 2.32 4.66 3.64 5 5 C4.67 4.34 4.34 3.68 4 3 C3.01 3.33 2.02 3.66 1 4 C-0.21869929 6.50447516 -0.21869929 6.50447516 -1 9 C-1.33 9 -1.66 9 -2 9 C-2.25 3.375 -2.25 3.375 0 0 Z " fill="#0E081A" transform="translate(106,154)"/>
<path d="M0 0 C0.99 1.32 1.98 2.64 3 4 C2.67 4.66 2.34 5.32 2 6 C0.02 6 -1.96 6 -4 6 C-2.68 4.02 -1.36 2.04 0 0 Z " fill="#0E081A" transform="translate(48,160)"/>
<path d="M0 0 C-0.33 0.99 -0.66 1.98 -1 3 C-2.65 3.33 -4.3 3.66 -6 4 C-6.33 3.34 -6.66 2.68 -7 2 C-5.26578631 -1.46842738 -3.40984787 -1.13661596 0 0 Z " fill="#190F2D" transform="translate(20,122)"/>
<path d="M0 0 C0.99 0.495 0.99 0.495 2 1 C2 1.66 2 2.32 2 3 C2.66 2.34 3.32 1.68 4 1 C4 2.98 4 4.96 4 7 C3.01 7.33 2.02 7.66 1 8 C0.67 5.36 0.34 2.72 0 0 Z " fill="#9559FC" transform="translate(43,156)"/>
<path d="M0 0 C0.66 0 1.32 0 2 0 C2.33 1.32 2.66 2.64 3 4 C3.99 4 4.98 4 6 4 C5.67 4.99 5.34 5.98 5 7 C1.125 6.125 1.125 6.125 0 5 C-0.04063832 3.33382885 -0.042721 1.66611905 0 0 Z " fill="#9258FC" transform="translate(2,154)"/>
<path d="M0 0 C0.33 0.66 0.66 1.32 1 2 C1.66 2 2.32 2 3 2 C3.33 3.32 3.66 4.64 4 6 C2.35 5.67 0.7 5.34 -1 5 C-0.67 3.35 -0.34 1.7 0 0 Z " fill="#482B82" transform="translate(5,153)"/>
<path d="M0 0 C0.78375 0.04125 1.5675 0.0825 2.375 0.125 C1.055 0.455 -0.265 0.785 -1.625 1.125 C-1.74875 1.7025 -1.8725 2.28 -2 2.875 C-2.63148824 5.14835767 -3.51358191 7.0503529 -4.625 9.125 C-4.75 5.75 -4.75 5.75 -4.625 2.125 C-2.625 0.125 -2.625 0.125 0 0 Z " fill="#9458F3" transform="translate(43.625,150.875)"/>
<path d="M0 0 C0.66 0 1.32 0 2 0 C2 2.64 2 5.28 2 8 C1.01 7.67 0.02 7.34 -1 7 C-1.04254356 5.00045254 -1.04080783 2.99958364 -1 1 C-0.67 0.67 -0.34 0.34 0 0 Z " fill="#110A20" transform="translate(42,154)"/>
<path d="M0 0 C1.32 0 2.64 0 4 0 C4 2.64 4 5.28 4 8 C1.53721199 5.53721199 1.00228745 3.29323018 0 0 Z " fill="#7C4AD2" transform="translate(124,149)"/>
<path d="M0 0 C0 0.66 0 1.32 0 2 C0.66 2.33 1.32 2.66 2 3 C0.02 3.33 -1.96 3.66 -4 4 C-4 3.34 -4 2.68 -4 2 C-4.66 1.67 -5.32 1.34 -6 1 C-3 0 -3 0 0 0 Z " fill="#7445C6" transform="translate(23,117)"/>
<path d="M0 0 C0.33 0.66 0.66 1.32 1 2 C-0.98 2.33 -2.96 2.66 -5 3 C-5.33 2.01 -5.66 1.02 -6 0 C-3 -1 -3 -1 0 0 Z " fill="#1E1236" transform="translate(36,117)"/>
</svg>
